<svg width="64" height="64" viewBox="0 0 64 64" fill="none" xmlns="http://www.w3.org/2000/svg">
  <rect width="64" height="64" rx="16" fill="white"/>
  <circle cx="22" cy="17" r="7" fill="#223B6E"/>
  <path d="M10 33C10 24.1634 17.1634 17 26 17H30C38.8366 17 46 24.1634 46 33V52H34V35C34 30.5817 30.4183 27 26 27C21.5817 27 18 30.5817 18 35V52H10V33Z" fill="#223B6E"/>
  <circle cx="43.5" cy="21.5" r="6.5" fill="#C9242E"/>
  <path d="M20 50C25.5 37.3333 33.5 27.1667 44 19.5C46 18 49.5 18.5 51 21C52.3722 23.287 51.6679 26.2307 49.4116 27.6524C41.2727 32.7806 34.8022 40.23 29.64 50H20Z" fill="#C9242E"/>
</svg>
