<svg width="64" height="64" viewBox="0 0 64 64" fill="none" xmlns="http://www.w3.org/2000/svg">
  <circle cx="32" cy="32" r="26" fill="#25D366"/>
  <path d="M43.114 36.616C42.691 36.405 40.617 35.381 40.23 35.241C39.842 35.1 39.561 35.03 39.28 35.452C38.998 35.874 38.189 36.828 37.942 37.109C37.695 37.391 37.449 37.426 37.026 37.215C36.603 37.004 35.242 36.558 33.628 35.116C32.373 33.997 31.524 32.617 31.277 32.194C31.03 31.771 31.251 31.542 31.453 31.341C31.634 31.161 31.876 30.873 32.088 30.627C32.299 30.38 32.37 30.204 32.511 29.923C32.652 29.641 32.582 29.394 32.476 29.183C32.37 28.972 31.523 26.893 31.172 26.049C30.831 25.229 30.483 25.34 30.224 25.327C29.982 25.315 29.706 25.312 29.424 25.312C29.143 25.312 28.683 25.417 28.294 25.839C27.906 26.26 26.808 27.29 26.808 29.392C26.808 31.495 28.329 33.527 28.541 33.808C28.752 34.09 31.508 38.335 35.728 40.156C36.733 40.59 37.519 40.848 38.13 41.042C39.14 41.363 40.06 41.318 40.787 41.209C41.598 41.087 43.284 40.221 43.637 39.239C43.99 38.257 43.99 37.416 43.884 37.24C43.779 37.064 43.537 36.933 43.114 36.616Z" fill="white"/>
  <path d="M32 17C23.715 17 17 23.716 17 32C17 34.887 17.82 37.581 19.238 39.862L17.5 46.5L24.333 44.796C26.498 46.085 29.029 46.824 31.734 46.824H32C40.284 46.824 47 40.108 47 31.824C47 23.54 40.284 17 32 17ZM32 44.249H31.734C29.308 44.249 26.93 43.569 24.873 42.283L24.382 41.977L20.9 42.845L21.795 39.487L21.475 38.972C20.112 36.781 19.39 34.255 19.39 31.824C19.39 24.865 25.041 19.214 32 19.214C38.959 19.214 44.61 24.865 44.61 31.824C44.61 38.598 39.082 44.249 32 44.249Z" fill="white"/>
</svg>
